<?xml version="1.0" encoding="UTF-8"?>
<svg width="320px" height="320px" viewBox="0 0 320 320" version="1.1" xmlns="http://www.w3.org/2000/svg" xmlns:xlink="http://www.w3.org/1999/xlink">
    <title>musio_logo_white_text</title>
    <defs>
        <linearGradient x1="31.6653025%" y1="10.7028739%" x2="54.1160969%" y2="58.776401%" id="linearGradient-1">
            <stop stop-color="#FB2545" offset="9%"></stop>
            <stop stop-color="#AB2240" offset="100%"></stop>
        </linearGradient>
        <linearGradient x1="66.2667213%" y1="3.51239664%" x2="34.6215328%" y2="93.9526758%" id="linearGradient-2">
            <stop stop-color="#FB2545" offset="0%"></stop>
            <stop stop-color="#AB2240" offset="100%"></stop>
        </linearGradient>
        <linearGradient x1="66.6461346%" y1="1.9656723%" x2="33.9700369%" y2="96.1284611%" id="linearGradient-3">
            <stop stop-color="#FB2545" offset="0%"></stop>
            <stop stop-color="#AB2240" offset="100%"></stop>
        </linearGradient>
    </defs>
    <g id="musio_logo_white_text" stroke="none" fill="none" fill-rule="evenodd" stroke-width="1">
        <g id="musio_logo_logo-(10)-copy">
            <path d="M250.2,184.4 L189.5,61.9 C181.1,45 188.1,24.4 205,16 C213.2,11.9 222.5,11.3 231.2,14.3 C239.9,17.2 246.9,23.3 251,31.5 L311.6,154 C320,170.9 313,191.5 296.1,199.9 C291.2,202.3 286.1,203.5 280.9,203.5 C268.4,203.5 256.2,196.5 250.2,184.4 Z" id="Path" fill="url(#linearGradient-1)"></path>
            <path d="M144.6,199.9 C127.7,191.5 120.7,170.9 129.1,154 L189.8,31.5 C193.9,23.3 200.9,17.2 209.6,14.3 C218.3,11.4 227.6,12 235.8,16 C243.9,20 250,27.1 253,35.8 C255.9,44.5 255.3,53.8 251.3,62 L190.6,184.5 C184.6,196.6 172.5,203.6 159.8,203.6 C154.7,203.4 149.5,202.3 144.6,199.9 Z" id="Path" fill="url(#linearGradient-2)"></path>
            <path d="M23.9,199.9 C6.9,191.5 7.15255998e-07,170.9 8.4,154 L69.1,31.5 C73.2,23.3 80.2,17.2 88.9,14.3 C97.6,11.4 106.9,12 115.1,16 C132,24.4 139,45 130.6,61.9 L69.8,184.4 C63.8,196.5 51.7,203.5 39,203.5 C33.9,203.4 28.7,202.3 23.9,199.9 Z" id="Path" fill="url(#linearGradient-3)"></path>
            <g id="Path" fill="#000000">
                <g id="path-4-link">
                    <path d="M51.9,241.7 C50.1,241.7 49.2,242.9 48.8,243.4 L29.6,267.8 L10.3,243.4 C9.8,242.8 9,241.7 7.2,241.7 C5.3,241.7 4,243.1 4,245 L4,288.3 C4,290.5 5.5,292 7.8,292 L9.1,292 C11.3,292 12.9,290.5 12.9,288.3 L12.9,261.1 L26.8,278.4 C28.3,280.3 30.9,280.3 32.5,278.4 L46.3,261.1 L46.3,288.3 C46.3,290.5 47.8,292 50.1,292 L51.4,292 C53.6,292 55.2,290.5 55.2,288.3 L55.2,245 C55,242.9 53.4,241.7 51.9,241.7 Z" id="path-4"></path>
                </g>
                <path d="M51.9,241.2 C52.8174393,241.2 53.7699741,241.583486 54.4963526,242.309864 C55.1326153,242.946127 55.5977428,243.845377 55.7,244.976864 L55.7,288.3 C55.7,289.542207 55.2438654,290.583516 54.4872698,291.320201 C53.725387,292.062034 52.6511227,292.5 51.4,292.5 L50.1,292.5 C48.8062097,292.5 47.7435109,292.068224 46.9975441,291.341888 C46.2403617,290.604631 45.8,289.555857 45.8,288.3 L45.8,262.528618 L32.8868384,278.716856 C31.9803402,279.796195 30.7864013,280.325 29.6125,280.325 C28.4326972,280.325 27.2622097,279.79238 26.4102259,278.713171 L13.4,262.520588 L13.4,288.3 C13.4,289.542207 12.9438654,290.583516 12.1872698,291.320201 C11.425387,292.062034 10.3511227,292.5 9.1,292.5 L7.8,292.5 C6.50620972,292.5 5.44351092,292.068224 4.69754412,291.341888 C3.9403617,290.604631 3.5,289.555857 3.5,288.3 L3.5,245 C3.5,243.899845 3.88749268,242.950432 4.54157037,242.275914 C5.19106055,241.606127 6.10785208,241.2 7.2,241.2 C9.10901011,241.2 10.0297505,242.285269 10.6063091,242.985927 L29.5989434,266.992792 L48.4089229,243.088458 C48.9212967,242.445278 49.9448058,241.2 51.9,241.2 Z"></path>
            </g>
            <g id="Path" fill="#000000">
                <g id="path-6-link">
                    <path d="M123.5,241.7 L122.3,241.7 C120.1,241.7 118.5,243.2 118.5,245.4 L118.5,271.2 C118.5,283.9 108.1,284.6 106,284.6 C103.9,284.6 93.4,284 93.4,271.2 L93.4,245.4 C93.4,243.2 91.9,241.7 89.6,241.7 L88.3,241.7 C86.1,241.7 84.5,243.2 84.5,245.4 L84.5,271.8 C84.5,284.4 93.1,292.9 105.9,292.9 C118.7,292.9 127.1,284.4 127.1,271.8 L127.1,245.4 C127.3,243.3 125.7,241.7 123.5,241.7 Z" id="path-6"></path>
                </g>
                <path d="M89.6,241.2 C90.8937903,241.2 91.9564891,241.631776 92.7024559,242.358112 C93.4596383,243.095369 93.9,244.144143 93.9,245.4 L93.9,271.2 C93.9,275.681643 95.2180506,278.622065 97.0193243,280.537705 C100.161063,283.87892 104.716874,284.1 106,284.1 C107.281667,284.1 111.790107,283.838821 114.901764,280.503125 C116.69054,278.585558 118,275.652976 118,271.2 L118,245.4 C118,244.157793 118.456135,243.116484 119.21273,242.379799 C119.974613,241.637966 121.048877,241.2 122.3,241.2 L123.5,241.2 C124.754385,241.2 125.831604,241.666835 126.56783,242.423512 C127.303688,243.17981 127.706935,244.229234 127.6,245.423031 L127.6,271.8 C127.6,278.267313 125.427241,283.67274 121.6221,287.459932 C117.838625,291.22556 112.432636,293.4 105.9,293.4 C99.3540823,293.4 93.888264,291.216533 90.0535375,287.435564 C86.2132564,283.649119 84,278.252844 84,271.8 L84,245.4 C84,244.157793 84.4561346,243.116484 85.2127302,242.379799 C85.974613,241.637966 87.0488773,241.2 88.3,241.2 L89.6,241.2 Z"></path>
            </g>
            <g id="Path" fill="#000000">
                <g id="path-8-link">
                    <path d="M178.6,262.8 C177.9,262.7 177.2,262.6 176.5,262.4 C169.8,261.2 164.2,260 164.2,256.1 C164.2,251.2 170.4,249.2 173.7,249.2 C177.5,249.2 180.9,250.1 184.7,252.3 C186.5,253.3 188.6,252.8 189.7,251 L190.3,250.1 C190.9,249.2 191.1,248.1 190.8,247.1 C190.6,246.2 189.9,245.3 189.1,244.9 C184.5,242.2 179.6,240.8 174.2,240.8 C164.9,240.8 155.5,245.6 155.5,256.2 C155.5,266.9 167.3,269.4 173,270.4 L174.3,270.6 C182.7,272.2 186.3,273.6 186.3,277.6 C186.3,283.8 179.2,284.5 176.1,284.5 C171.6,284.5 167.1,283.1 163,280.5 C161.1,279.3 159,279.8 157.8,281.6 L157.1,282.6 C156.4,283.7 156.4,284.8 156.5,285.5 C156.6,286.2 157.1,287.1 158.2,287.8 C163.5,291.2 169.2,292.8 176.2,292.8 C187.8,292.8 195,287 195,277.6 C194.9,265.9 183,263.7 178.6,262.8 Z" id="path-8"></path>
                </g>
                <path d="M174.2,240.3 C179.688555,240.3 184.669487,241.721365 189.345447,244.463825 C190.254777,244.92832 191.05027,245.949152 191.28437,246.974687 C191.618203,248.108687 191.397013,249.355869 190.716025,250.37735 L190.121349,251.269364 C189.50206,252.278039 188.602667,252.920247 187.608833,253.178644 C186.598477,253.441336 185.484732,253.307942 184.449482,252.732713 C180.736024,250.582817 177.414027,249.7 173.7,249.7 C171.870254,249.7 169.108186,250.340457 167.108335,251.792981 C165.721472,252.800281 164.7,254.209276 164.7,256.1 C164.7,256.801563 164.910114,257.401801 165.296669,257.921387 C165.741485,258.519284 166.409439,259.01038 167.241196,259.436402 C169.478924,260.582556 172.862797,261.240604 176.58815,261.907832 C177.315074,262.11287 177.993064,262.208219 178.670711,262.305025 C181.843955,262.950233 187.382255,264.097514 191.23614,267.617868 C193.678509,269.848865 195.460881,273.020955 195.5,277.6 C195.5,282.464675 193.62991,286.392735 190.269883,289.109353 C186.945408,291.797226 182.140851,293.3 176.2,293.3 C169.094128,293.3 163.309516,291.671843 157.931562,288.221831 C156.665674,287.416265 156.119249,286.370275 156.005025,285.570711 C155.892983,284.786416 155.896429,283.55367 156.684262,282.322013 L157.383975,281.32265 C158.068897,280.295267 159.017102,279.65085 160.058283,279.4306 C161.080819,279.214294 162.201821,279.404513 163.267771,280.077746 C167.283965,282.6246 171.691249,284 176.1,284 C177.908802,284 181.140755,283.76951 183.400678,282.240739 C184.797119,281.296087 185.8,279.836397 185.8,277.6 C185.8,275.883586 185.052571,274.707421 183.469509,273.783968 C181.56541,272.673244 178.533534,271.915619 174.215174,271.092832 L172.918783,270.893388 C169.398366,270.275945 163.596419,269.081239 159.573277,265.816747 C156.903131,263.650114 155,260.586317 155,256.2 C155,251.146431 157.068546,247.369615 160.234216,244.762592 C163.901506,241.742471 169.062586,240.3 174.2,240.3 Z"></path>
            </g>
            <g id="Path" fill="#000000">
                <g id="path-10-link">
                    <path d="M230.5,241.7 L229.2,241.7 C227,241.7 225.4,243.2 225.4,245.4 L225.4,288.3 C225.4,290.5 226.9,292 229.2,292 L230.5,292 C232.7,292 234.3,290.5 234.3,288.3 L234.3,245.4 C234.3,243.3 232.7,241.7 230.5,241.7 Z" id="path-10"></path>
                </g>
                <path d="M230.5,241.2 C231.737024,241.2 232.802735,241.653444 233.563739,242.394421 C234.336993,243.147326 234.8,244.200743 234.8,245.4 L234.8,288.3 C234.8,289.542207 234.343865,290.583516 233.58727,291.320201 C232.825387,292.062034 231.751123,292.5 230.5,292.5 L229.2,292.5 C227.90621,292.5 226.843511,292.068224 226.097544,291.341888 C225.340362,290.604631 224.9,289.555857 224.9,288.3 L224.9,245.4 C224.9,244.157793 225.356135,243.116484 226.11273,242.379799 C226.874613,241.637966 227.948877,241.2 229.2,241.2 L230.5,241.2 Z"></path>
            </g>
            <g id="Shape" fill="#000000">
                <g id="path-12-link" fill-rule="nonzero">
                    <path d="M290.1,240.7 C275.7,240.7 264.4,252.2 264.4,266.9 C264.4,281.6 275.7,293.1 290.1,293.1 C304.5,293.1 316,281.9 316,266.9 C316,251.9 304.6,240.7 290.1,240.7 Z M290.1,249.1 C299.3,249.1 307.2,257.3 307.2,266.9 C307.2,276.5 299.4,284.7 290.1,284.7 C280.8,284.7 273.2,276.5 273.2,266.9 C273.2,257.3 280.9,249.1 290.1,249.1 Z" id="path-12"></path>
                </g>
                <path d="M290.1,240.2 C297.531815,240.2 304.163128,243.088977 308.92118,247.902141 C313.624411,252.65985 316.5,259.300161 316.5,266.9 C316.5,274.486686 313.609651,281.117394 308.908022,285.873482 C304.135164,290.701624 297.49319,293.6 290.1,293.6 C282.756336,293.6 276.204159,290.66539 271.488372,285.857856 C266.779176,281.057041 263.9,274.386596 263.9,266.9 C263.9,259.413404 266.779176,252.742959 271.488372,247.942144 C276.204159,243.13461 282.756336,240.2 290.1,240.2 Z M290.1,249.6 C285.649329,249.6 281.563491,251.583528 278.584126,254.721558 C275.581468,257.88412 273.7,262.220905 273.7,266.9 C273.7,271.591819 275.566538,275.939797 278.571435,279.104717 C281.536875,282.22808 285.613258,284.2 290.1,284.2 C294.60237,284.2 298.739867,282.215024 301.757371,279.073996 C304.794831,275.912196 306.7,271.577281 306.7,266.9 C306.7,262.235445 304.780289,257.91173 301.745144,254.75234 C298.713512,251.596606 294.566139,249.6 290.1,249.6 Z"></path>
            </g>
        </g>
    </g>
</svg>